<mxfile host="app.diagrams.net" agent="Mozilla/5.0 (X11; Ubuntu; Linux x86_64; rv:134.0) Gecko/20100101 Firefox/134.0" version="26.0.10">
  <diagram name="Page-1" id="RkvhiPL-U6qVXYimrsNo">
    <mxGraphModel dx="1147" dy="1058" grid="1" gridSize="10" guides="1" tooltips="1" connect="1" arrows="1" fold="1" page="0" pageScale="1" pageWidth="827" pageHeight="1169" math="0" shadow="0">
      <root>
        <mxCell id="0" />
        <mxCell id="1" parent="0" />
        <mxCell id="eSKypWe9uGo09Mxp3vP8-13" value="" style="rounded=0;orthogonalLoop=1;jettySize=auto;html=1;" edge="1" parent="1" source="eSKypWe9uGo09Mxp3vP8-1" target="eSKypWe9uGo09Mxp3vP8-12">
          <mxGeometry relative="1" as="geometry" />
        </mxCell>
        <mxCell id="eSKypWe9uGo09Mxp3vP8-1" value="Profiessionel" style="shape=umlActor;verticalLabelPosition=bottom;verticalAlign=top;html=1;outlineConnect=0;" vertex="1" parent="1">
          <mxGeometry x="405" y="-170" width="30" height="60" as="geometry" />
        </mxCell>
        <mxCell id="eSKypWe9uGo09Mxp3vP8-10" value="" style="rounded=0;orthogonalLoop=1;jettySize=auto;html=1;" edge="1" parent="1" source="eSKypWe9uGo09Mxp3vP8-2" target="eSKypWe9uGo09Mxp3vP8-8">
          <mxGeometry relative="1" as="geometry" />
        </mxCell>
        <mxCell id="eSKypWe9uGo09Mxp3vP8-2" value="Particulier" style="shape=umlActor;verticalLabelPosition=bottom;verticalAlign=top;html=1;outlineConnect=0;" vertex="1" parent="1">
          <mxGeometry x="50" y="-160" width="30" height="60" as="geometry" />
        </mxCell>
        <mxCell id="eSKypWe9uGo09Mxp3vP8-11" value="" style="rounded=0;orthogonalLoop=1;jettySize=auto;html=1;" edge="1" parent="1" source="eSKypWe9uGo09Mxp3vP8-3" target="eSKypWe9uGo09Mxp3vP8-5">
          <mxGeometry relative="1" as="geometry" />
        </mxCell>
        <mxCell id="eSKypWe9uGo09Mxp3vP8-16" value="" style="edgeStyle=orthogonalEdgeStyle;rounded=0;orthogonalLoop=1;jettySize=auto;html=1;" edge="1" parent="1" source="eSKypWe9uGo09Mxp3vP8-3" target="eSKypWe9uGo09Mxp3vP8-5">
          <mxGeometry relative="1" as="geometry" />
        </mxCell>
        <mxCell id="eSKypWe9uGo09Mxp3vP8-3" value="Commercial" style="shape=umlActor;verticalLabelPosition=bottom;verticalAlign=top;html=1;outlineConnect=0;" vertex="1" parent="1">
          <mxGeometry x="830" y="-150" width="30" height="60" as="geometry" />
        </mxCell>
        <mxCell id="eSKypWe9uGo09Mxp3vP8-5" value="inscrit nouveau client" style="ellipse;whiteSpace=wrap;html=1;" vertex="1" parent="1">
          <mxGeometry x="785" width="120" height="80" as="geometry" />
        </mxCell>
        <mxCell id="eSKypWe9uGo09Mxp3vP8-8" value="passe commande" style="ellipse;whiteSpace=wrap;html=1;" vertex="1" parent="1">
          <mxGeometry x="5" y="-10" width="120" height="80" as="geometry" />
        </mxCell>
        <mxCell id="eSKypWe9uGo09Mxp3vP8-12" value="passe commande" style="ellipse;whiteSpace=wrap;html=1;" vertex="1" parent="1">
          <mxGeometry x="360" width="120" height="80" as="geometry" />
        </mxCell>
        <mxCell id="eSKypWe9uGo09Mxp3vP8-59" style="edgeStyle=orthogonalEdgeStyle;rounded=0;orthogonalLoop=1;jettySize=auto;html=1;" edge="1" parent="1" source="eSKypWe9uGo09Mxp3vP8-17" target="eSKypWe9uGo09Mxp3vP8-18">
          <mxGeometry relative="1" as="geometry" />
        </mxCell>
        <mxCell id="eSKypWe9uGo09Mxp3vP8-17" value="client" style="shape=umlActor;verticalLabelPosition=bottom;verticalAlign=top;html=1;outlineConnect=0;" vertex="1" parent="1">
          <mxGeometry x="405" y="210" width="30" height="60" as="geometry" />
        </mxCell>
        <mxCell id="eSKypWe9uGo09Mxp3vP8-24" value="" style="rounded=0;orthogonalLoop=1;jettySize=auto;html=1;exitX=0.008;exitY=0.42;exitDx=0;exitDy=0;exitPerimeter=0;" edge="1" parent="1">
          <mxGeometry relative="1" as="geometry">
            <mxPoint x="370.96000000000004" y="369.9999999999999" as="sourcePoint" />
            <mxPoint x="280" y="456.4" as="targetPoint" />
          </mxGeometry>
        </mxCell>
        <mxCell id="eSKypWe9uGo09Mxp3vP8-26" value="" style="rounded=0;orthogonalLoop=1;jettySize=auto;html=1;" edge="1" parent="1" source="eSKypWe9uGo09Mxp3vP8-18">
          <mxGeometry relative="1" as="geometry">
            <mxPoint x="420" y="520" as="targetPoint" />
          </mxGeometry>
        </mxCell>
        <mxCell id="eSKypWe9uGo09Mxp3vP8-28" value="" style="rounded=0;orthogonalLoop=1;jettySize=auto;html=1;" edge="1" parent="1" source="eSKypWe9uGo09Mxp3vP8-18" target="eSKypWe9uGo09Mxp3vP8-21">
          <mxGeometry relative="1" as="geometry">
            <mxPoint x="580" y="370" as="targetPoint" />
          </mxGeometry>
        </mxCell>
        <mxCell id="eSKypWe9uGo09Mxp3vP8-18" value="se connecte" style="ellipse;whiteSpace=wrap;html=1;" vertex="1" parent="1">
          <mxGeometry x="360" y="330" width="120" height="80" as="geometry" />
        </mxCell>
        <mxCell id="eSKypWe9uGo09Mxp3vP8-19" value="consulter le catalogue" style="ellipse;whiteSpace=wrap;html=1;" vertex="1" parent="1">
          <mxGeometry x="170" y="440" width="120" height="80" as="geometry" />
        </mxCell>
        <mxCell id="eSKypWe9uGo09Mxp3vP8-20" value="voir son profil" style="ellipse;whiteSpace=wrap;html=1;" vertex="1" parent="1">
          <mxGeometry x="360" y="520" width="120" height="80" as="geometry" />
        </mxCell>
        <mxCell id="eSKypWe9uGo09Mxp3vP8-21" value="changement de mot passe " style="ellipse;whiteSpace=wrap;html=1;" vertex="1" parent="1">
          <mxGeometry x="665" y="510" width="120" height="80" as="geometry" />
        </mxCell>
        <mxCell id="eSKypWe9uGo09Mxp3vP8-38" style="edgeStyle=orthogonalEdgeStyle;rounded=0;orthogonalLoop=1;jettySize=auto;html=1;" edge="1" parent="1" source="eSKypWe9uGo09Mxp3vP8-29" target="eSKypWe9uGo09Mxp3vP8-32">
          <mxGeometry relative="1" as="geometry" />
        </mxCell>
        <mxCell id="eSKypWe9uGo09Mxp3vP8-29" value="cliquer sur la categorie" style="ellipse;whiteSpace=wrap;html=1;" vertex="1" parent="1">
          <mxGeometry x="170" y="590" width="120" height="80" as="geometry" />
        </mxCell>
        <mxCell id="eSKypWe9uGo09Mxp3vP8-31" value="" style="endArrow=classic;html=1;rounded=0;exitX=0.5;exitY=1;exitDx=0;exitDy=0;" edge="1" parent="1" source="eSKypWe9uGo09Mxp3vP8-19" target="eSKypWe9uGo09Mxp3vP8-29">
          <mxGeometry width="50" height="50" relative="1" as="geometry">
            <mxPoint x="210" y="580" as="sourcePoint" />
            <mxPoint x="260" y="530" as="targetPoint" />
          </mxGeometry>
        </mxCell>
        <mxCell id="eSKypWe9uGo09Mxp3vP8-35" style="edgeStyle=orthogonalEdgeStyle;rounded=0;orthogonalLoop=1;jettySize=auto;html=1;" edge="1" parent="1" source="eSKypWe9uGo09Mxp3vP8-32" target="eSKypWe9uGo09Mxp3vP8-34">
          <mxGeometry relative="1" as="geometry" />
        </mxCell>
        <mxCell id="eSKypWe9uGo09Mxp3vP8-32" value="cliquer sur la sous catÃ©gorie" style="ellipse;whiteSpace=wrap;html=1;" vertex="1" parent="1">
          <mxGeometry x="170" y="740" width="120" height="80" as="geometry" />
        </mxCell>
        <mxCell id="eSKypWe9uGo09Mxp3vP8-36" style="edgeStyle=orthogonalEdgeStyle;rounded=0;orthogonalLoop=1;jettySize=auto;html=1;" edge="1" parent="1" source="eSKypWe9uGo09Mxp3vP8-34" target="eSKypWe9uGo09Mxp3vP8-37">
          <mxGeometry relative="1" as="geometry">
            <mxPoint x="230" y="1030" as="targetPoint" />
          </mxGeometry>
        </mxCell>
        <mxCell id="eSKypWe9uGo09Mxp3vP8-34" value="choisie le produit" style="ellipse;whiteSpace=wrap;html=1;" vertex="1" parent="1">
          <mxGeometry x="170" y="880" width="120" height="80" as="geometry" />
        </mxCell>
        <mxCell id="eSKypWe9uGo09Mxp3vP8-39" style="edgeStyle=orthogonalEdgeStyle;rounded=0;orthogonalLoop=1;jettySize=auto;html=1;" edge="1" parent="1" source="eSKypWe9uGo09Mxp3vP8-37" target="eSKypWe9uGo09Mxp3vP8-40">
          <mxGeometry relative="1" as="geometry">
            <mxPoint x="230" y="1150" as="targetPoint" />
          </mxGeometry>
        </mxCell>
        <mxCell id="eSKypWe9uGo09Mxp3vP8-37" value="choisie quantiter" style="ellipse;whiteSpace=wrap;html=1;" vertex="1" parent="1">
          <mxGeometry x="170" y="1000" width="120" height="80" as="geometry" />
        </mxCell>
        <mxCell id="eSKypWe9uGo09Mxp3vP8-41" style="edgeStyle=orthogonalEdgeStyle;rounded=0;orthogonalLoop=1;jettySize=auto;html=1;" edge="1" parent="1" source="eSKypWe9uGo09Mxp3vP8-40">
          <mxGeometry relative="1" as="geometry">
            <mxPoint x="230" y="1260" as="targetPoint" />
          </mxGeometry>
        </mxCell>
        <mxCell id="eSKypWe9uGo09Mxp3vP8-40" value="supprime quantiter" style="ellipse;whiteSpace=wrap;html=1;" vertex="1" parent="1">
          <mxGeometry x="170" y="1110" width="120" height="80" as="geometry" />
        </mxCell>
        <mxCell id="eSKypWe9uGo09Mxp3vP8-43" style="edgeStyle=orthogonalEdgeStyle;rounded=0;orthogonalLoop=1;jettySize=auto;html=1;" edge="1" parent="1" source="eSKypWe9uGo09Mxp3vP8-42" target="eSKypWe9uGo09Mxp3vP8-44">
          <mxGeometry relative="1" as="geometry">
            <mxPoint x="230" y="1460" as="targetPoint" />
          </mxGeometry>
        </mxCell>
        <mxCell id="eSKypWe9uGo09Mxp3vP8-42" value="valider le panier" style="ellipse;whiteSpace=wrap;html=1;" vertex="1" parent="1">
          <mxGeometry x="170" y="1260" width="120" height="80" as="geometry" />
        </mxCell>
        <mxCell id="eSKypWe9uGo09Mxp3vP8-45" style="edgeStyle=orthogonalEdgeStyle;rounded=0;orthogonalLoop=1;jettySize=auto;html=1;" edge="1" parent="1" source="eSKypWe9uGo09Mxp3vP8-44" target="eSKypWe9uGo09Mxp3vP8-46">
          <mxGeometry relative="1" as="geometry">
            <mxPoint x="230" y="1610" as="targetPoint" />
          </mxGeometry>
        </mxCell>
        <mxCell id="eSKypWe9uGo09Mxp3vP8-44" value="confirme adresse facturation" style="ellipse;whiteSpace=wrap;html=1;" vertex="1" parent="1">
          <mxGeometry x="170" y="1440" width="120" height="80" as="geometry" />
        </mxCell>
        <mxCell id="eSKypWe9uGo09Mxp3vP8-50" value="" style="edgeStyle=orthogonalEdgeStyle;rounded=0;orthogonalLoop=1;jettySize=auto;html=1;" edge="1" parent="1" source="eSKypWe9uGo09Mxp3vP8-46" target="eSKypWe9uGo09Mxp3vP8-48">
          <mxGeometry relative="1" as="geometry" />
        </mxCell>
        <mxCell id="eSKypWe9uGo09Mxp3vP8-51" style="edgeStyle=orthogonalEdgeStyle;rounded=0;orthogonalLoop=1;jettySize=auto;html=1;" edge="1" parent="1" source="eSKypWe9uGo09Mxp3vP8-46" target="eSKypWe9uGo09Mxp3vP8-49">
          <mxGeometry relative="1" as="geometry" />
        </mxCell>
        <mxCell id="eSKypWe9uGo09Mxp3vP8-46" value="confirme adresse de livraision" style="ellipse;whiteSpace=wrap;html=1;" vertex="1" parent="1">
          <mxGeometry x="170" y="1560" width="120" height="80" as="geometry" />
        </mxCell>
        <mxCell id="eSKypWe9uGo09Mxp3vP8-53" style="edgeStyle=orthogonalEdgeStyle;rounded=0;orthogonalLoop=1;jettySize=auto;html=1;entryX=0.5;entryY=0;entryDx=0;entryDy=0;" edge="1" parent="1" source="eSKypWe9uGo09Mxp3vP8-48" target="eSKypWe9uGo09Mxp3vP8-52">
          <mxGeometry relative="1" as="geometry" />
        </mxCell>
        <mxCell id="eSKypWe9uGo09Mxp3vP8-48" value="payement immÃ©diat" style="ellipse;whiteSpace=wrap;html=1;" vertex="1" parent="1">
          <mxGeometry x="80" y="1690" width="120" height="80" as="geometry" />
        </mxCell>
        <mxCell id="eSKypWe9uGo09Mxp3vP8-54" style="edgeStyle=orthogonalEdgeStyle;rounded=0;orthogonalLoop=1;jettySize=auto;html=1;entryX=0.5;entryY=0;entryDx=0;entryDy=0;" edge="1" parent="1" source="eSKypWe9uGo09Mxp3vP8-49" target="eSKypWe9uGo09Mxp3vP8-52">
          <mxGeometry relative="1" as="geometry" />
        </mxCell>
        <mxCell id="eSKypWe9uGo09Mxp3vP8-49" value="payement diffÃ©rÃ©e" style="ellipse;whiteSpace=wrap;html=1;" vertex="1" parent="1">
          <mxGeometry x="270" y="1690" width="120" height="80" as="geometry" />
        </mxCell>
        <mxCell id="eSKypWe9uGo09Mxp3vP8-55" style="edgeStyle=orthogonalEdgeStyle;rounded=0;orthogonalLoop=1;jettySize=auto;html=1;" edge="1" parent="1" source="eSKypWe9uGo09Mxp3vP8-52" target="eSKypWe9uGo09Mxp3vP8-56">
          <mxGeometry relative="1" as="geometry">
            <mxPoint x="230" y="1970" as="targetPoint" />
          </mxGeometry>
        </mxCell>
        <mxCell id="eSKypWe9uGo09Mxp3vP8-52" value="E-mail de confirmation de commande" style="ellipse;whiteSpace=wrap;html=1;" vertex="1" parent="1">
          <mxGeometry x="170" y="1820" width="120" height="80" as="geometry" />
        </mxCell>
        <mxCell id="eSKypWe9uGo09Mxp3vP8-57" style="edgeStyle=orthogonalEdgeStyle;rounded=0;orthogonalLoop=1;jettySize=auto;html=1;" edge="1" parent="1" source="eSKypWe9uGo09Mxp3vP8-56" target="eSKypWe9uGo09Mxp3vP8-58">
          <mxGeometry relative="1" as="geometry">
            <mxPoint x="230" y="2100" as="targetPoint" />
          </mxGeometry>
        </mxCell>
        <mxCell id="eSKypWe9uGo09Mxp3vP8-56" value="E-mail de livraison" style="ellipse;whiteSpace=wrap;html=1;" vertex="1" parent="1">
          <mxGeometry x="170" y="1930" width="120" height="80" as="geometry" />
        </mxCell>
        <mxCell id="eSKypWe9uGo09Mxp3vP8-58" value="Livraison" style="ellipse;whiteSpace=wrap;html=1;" vertex="1" parent="1">
          <mxGeometry x="170" y="2060" width="120" height="80" as="geometry" />
        </mxCell>
      </root>
    </mxGraphModel>
  </diagram>
</mxfile>
